<?xml version="1.0" standalone="no"?>
<!DOCTYPE svg PUBLIC "-//W3C//DTD SVG 20010904//EN"
 "http://www.w3.org/TR/2001/REC-SVG-20010904/DTD/svg10.dtd">
<svg version="1.0" xmlns="http://www.w3.org/2000/svg"
 width="313.000000pt" height="313.000000pt" viewBox="0 0 313.000000 313.000000"
 preserveAspectRatio="xMidYMid meet">
<metadata>
Created by potrace 1.11, written by Peter Selinger 2001-2013
</metadata>
<g transform="translate(0.000000,313.000000) scale(0.100000,-0.100000)"
fill="#000000" stroke="none">
<path d="M1355 2984 c-303 -55 -566 -192 -779 -408 -291 -296 -439 -706 -405
-1122 28 -354 167 -653 418 -905 202 -201 440 -330 724 -391 137 -29 417 -32
552 -5 214 43 435 140 595 261 204 153 382 383 470 606 l20 50 -48 1 c-26 1
-67 2 -92 3 l-45 1 -38 -70 c-167 -309 -415 -523 -729 -631 -139 -47 -222 -59
-408 -58 -162 1 -184 3 -293 32 -214 56 -402 161 -562 313 -254 243 -387 552
-388 904 0 157 16 260 62 397 149 441 512 754 977 844 116 22 319 22 436 0
268 -51 508 -182 691 -376 88 -93 181 -228 228 -330 l33 -70 92 0 c107 0 103
-9 49 121 -181 432 -600 756 -1080 834 -114 19 -372 18 -480 -1z"/>
<path d="M1420 2365 c-256 -54 -466 -221 -574 -457 -153 -331 -64 -734 212
-963 84 -70 218 -139 319 -166 104 -28 297 -30 398 -5 90 23 225 86 291 136
66 50 164 149 164 167 0 10 -25 13 -111 13 l-111 0 -74 -50 c-110 -73 -210
-103 -349 -103 -93 0 -123 4 -192 27 -383 126 -556 567 -360 916 49 89 178
211 267 253 225 108 484 83 669 -63 l50 -40 116 0 c134 0 133 -3 44 95 -93
101 -246 193 -384 231 -82 22 -291 27 -375 9z"/>
</g>
</svg>
