<?xml version="1.0" encoding="utf-8"?>
<!-- Generator: Adobe Illustrator 16.0.0, SVG Export Plug-In . SVG Version: 6.00 Build 0)  -->
<!DOCTYPE svg PUBLIC "-//W3C//DTD SVG 1.1//EN" "http://www.w3.org/Graphics/SVG/1.1/DTD/svg11.dtd">
<svg version="1.1" id="Layer_1" xmlns="http://www.w3.org/2000/svg" xmlns:xlink="http://www.w3.org/1999/xlink" x="0px" y="0px"
	 width="1024px" height="1024px" viewBox="0 0 1024 1024" enable-background="new 0 0 1024 1024" xml:space="preserve">
<path fill="none" stroke="#F9BA48" stroke-width="5" stroke-miterlimit="10" d="M178.795,416.569
	c32.51-113.723,121.667-203.537,234.999-236.968"/>
<path fill="none" stroke="#8BC34A" stroke-width="5" stroke-miterlimit="10" d="M413.317,844.257
	c-111.912-33.188-200.178-121.376-233.476-233.24"/>
<path fill="none" stroke="#00BCD4" stroke-width="5" stroke-miterlimit="10" d="M844.159,611.015
	c-33.346,112.026-121.82,200.31-233.962,233.387"/>
<path fill="none" stroke="#E91E63" stroke-width="5" stroke-miterlimit="10" d="M610.195,179.599
	c111.979,33.028,200.358,121.1,233.816,232.894"/>
<g>
	<g>
		<g>
			<path fill="#333333" d="M550.117,146.661v-0.011l-2.391-0.247c-0.78-9.347-2.818-22.926-8.345-22.926
				c-0.57,0-1.081,0.161-1.586,0.439l-13.401,4.471c-4.412,1.472-8.999,2.218-13.649,2.218h-17.646
				c-15.72,0-28.509,12.79-28.509,28.509c0,12.798,8.479,23.651,20.117,27.244l-10.07,8.393h-17.174v3.564h18.464l10.46-8.719
				l11.022,3.149l3.747,4.687c0.499,0.619,0.716,1.395,0.617,2.184c-0.102,0.788-0.504,1.486-1.141,1.96
				c-1.151,0.863-2.787,0.744-3.804-0.27l-3.598-3.595l-10.154,8.123l2.228,2.784l4.232-3.386v14.465h-12.053l-3.563-1.782h-16.457
				v3.563h15.617l3.563,1.782h12.894v1.783c0,4.913,3.997,8.908,8.909,8.908c4.913,0,8.909-3.996,8.909-8.908v-1.783
				c2.947,0,5.347-2.398,5.347-5.346c0-1.374-0.537-2.616-1.39-3.564c0.854-0.948,1.39-2.188,1.39-3.563s-0.537-2.615-1.39-3.564
				c0.854-0.948,1.39-2.19,1.39-3.563s-0.537-2.617-1.39-3.565c0.854-0.947,1.39-2.19,1.39-3.563c0-2.945-2.399-5.345-5.347-5.345
				v-3.563h3.389c4.653,0,9.251,0.744,13.665,2.216l13.413,4.471c0.502,0.278,1.038,0.441,1.608,0.441
				c5.523,0,7.521-13.579,8.298-22.925l2.394-0.249v-0.01c3.564-0.202,5.168-6.348,5.168-12.453
				C555.288,153.008,553.682,146.862,550.117,146.661z M534.435,169.583c-0.221-3.18-0.354-6.669-0.354-10.469
				c0-3.801,0.134-7.292,0.354-10.469l11.92,1.195c-1.075,2.396-1.582,5.841-1.582,9.274c0,3.434,0.507,6.878,1.582,9.276
				L534.435,169.583z M544.207,146.042l-9.473-0.949c1.016-10.308,2.988-16.539,4.313-17.83l0.455-0.152
				C540.635,127.836,543.068,133.241,544.207,146.042z M502.771,204.426c0.896-0.671,1.558-1.555,1.996-2.547h2.586
				c0.984,0,1.782,0.799,1.782,1.782c0,0.982-0.798,1.782-1.782,1.782h-6.62C501.451,205.232,502.143,204.896,502.771,204.426z
				 M509.136,210.789c0,0.981-0.798,1.782-1.782,1.782h-7.127c-0.984,0-1.782-0.8-1.782-1.782c0-0.982,0.798-1.783,1.782-1.783
				h7.127C508.338,209.005,509.136,209.806,509.136,210.789z M503.79,225.044c0,2.946-2.399,5.346-5.346,5.346
				c-2.948,0-5.346-2.399-5.346-5.346v-22.427l1.21,1.208c0.199,0.201,0.422,0.365,0.644,0.535c0.146,1.095,0.612,2.081,1.319,2.865
				c-0.855,0.949-1.39,2.19-1.39,3.564s0.536,2.615,1.39,3.563c-0.855,0.949-1.39,2.19-1.39,3.565c0,2.947,2.398,5.345,5.346,5.345
				h3.564v1.783H503.79z M507.354,219.697h-7.127c-0.984,0-1.782-0.801-1.782-1.782c0-0.981,0.798-1.782,1.782-1.782h7.127
				c0.984,0,1.782,0.801,1.782,1.782C509.136,218.896,508.338,219.697,507.354,219.697z M509.136,196.533
				c0,0.982-0.798,1.782-1.782,1.782h-2.09c-0.163-1.124-0.594-2.197-1.324-3.111l-0.361-0.452h3.775
				C508.338,194.751,509.136,195.552,509.136,196.533z M503.79,191.188h-3.063l-1.247-1.558l-7.159-2.043
				c0.26,0.005,0.515,0.038,0.777,0.038h10.691V191.188z M510.742,184.06h-17.644c-13.756,0-24.945-11.189-24.945-24.945
				c0-13.755,11.189-24.947,24.945-24.947h17.646c5.034,0,10.009-0.806,14.789-2.399l8.809-2.936
				c-2.915,7.455-3.826,21.081-3.826,30.282c0,9.202,0.911,22.828,3.826,30.282l-8.809-2.936
				C520.754,184.867,515.779,184.06,510.742,184.06z M539.57,191.139l-0.335-0.111c-1.395-1.088-3.456-7.346-4.498-17.895
				l9.47-0.947C543.056,185.131,540.585,190.514,539.57,191.139z M550.117,167.861c-0.658-0.838-1.781-3.824-1.781-8.747
				s1.123-7.91,1.781-8.746c0.66,0.836,1.782,3.823,1.782,8.746S550.777,167.023,550.117,167.861z"/>
			<rect x="559.027" y="157.333" fill="#333333" width="5.346" height="3.563"/>
			
				<rect x="557.097" y="136.838" transform="matrix(-0.9487 0.3161 -0.3161 -0.9487 1134.9355 93.128)" fill="#333333" width="5.635" height="3.563"/>
			
				<rect x="558.134" y="176.785" transform="matrix(-0.3159 0.9488 -0.9488 -0.3159 907.1765 -294.9197)" fill="#333333" width="3.562" height="5.635"/>
			<rect x="503.79" y="130.605" fill="#E91E63" width="7.128" height="57.019"/>
		</g>
	</g>
	<circle fill="none" stroke="#E91E63" stroke-width="5" stroke-miterlimit="10" cx="510.215" cy="176.83" r="85"/>
</g>
<g>
	<circle fill="none" stroke="#00BCD4" stroke-width="5" stroke-miterlimit="10" cx="849" cy="512" r="85"/>
	<g>
		<g>
			<path fill="#00BCD4" d="M858.568,488.869h-16.989v-9.786c-3.208-2.576-5.098-6.474-5.098-10.601
				c0-7.496,6.097-13.592,13.594-13.592c7.493,0,13.59,6.097,13.59,13.591c0,4.13-1.889,8.029-5.097,10.603V488.869L858.568,488.869
				z"/>
			<path fill="#333333" d="M860.267,480.375h-8.493v-7.108c1.973-0.704,3.398-2.573,3.398-4.786c0-2.81-2.289-5.096-5.1-5.096
				s-5.098,2.286-5.098,5.096c0,2.212,1.427,4.082,3.399,4.786v7.108h-8.496v3.397h20.389V480.375L860.267,480.375z
				 M850.075,466.782c0.937,0,1.698,0.763,1.698,1.698c0,0.937-0.762,1.7-1.698,1.7c-0.939,0-1.701-0.763-1.701-1.7
				C848.374,467.545,849.136,466.782,850.075,466.782z"/>
			<path fill="#333333" d="M865.013,528.216l-1.842,2.857c5.628,3.627,8.988,9.775,8.988,16.445v9.308h-21.111l12.388-21.229
				l-2.938-1.715l-10.422,17.875l-10.428-17.875l-2.936,1.715l12.387,21.229h-21.11v-9.308c0-6.67,3.359-12.818,8.987-16.448
				l-1.842-2.857c-6.604,4.26-10.545,11.477-10.545,19.306v12.706h50.969v-12.706C875.558,539.689,871.617,532.473,865.013,528.216z
				"/>
			<path fill="#333333" d="M831.228,512.724c0,10.34,8.412,18.755,18.756,18.755c10.343,0,18.756-8.415,18.756-18.755
				c0-10.344-8.413-18.757-18.756-18.757C839.64,493.966,831.228,502.381,831.228,512.724z M865.343,512.724
				c0,8.464-6.893,15.356-15.359,15.356c-8.468,0-15.359-6.893-15.359-15.356c0-8.47,6.892-15.36,15.359-15.36
				C858.45,497.364,865.343,504.253,865.343,512.724z"/>
			<path fill="#333333" d="M827.033,518.979c-1.405,0.4-2.829,0.605-4.231,0.605c-8.468,0-15.359-6.889-15.359-15.355
				c0-8.471,6.892-15.359,15.359-15.359c4.624,0,8.957,2.055,11.89,5.642l2.633-2.152c-3.585-4.376-8.876-6.887-14.525-6.887
				c-10.343,0-18.756,8.414-18.756,18.756c0,10.343,8.413,18.755,18.756,18.755c1.72,0,3.457-0.248,5.166-0.735L827.033,518.979z"/>
			<path fill="#333333" d="M800.804,539.022c0-6.67,3.36-12.819,8.988-16.448l-1.842-2.857
				c-6.604,4.263-10.545,11.477-10.545,19.306v12.706h22.087v-3.396h-18.688V539.022z"/>
			<path fill="#333333" d="M895.923,504.229c0-10.342-8.412-18.757-18.756-18.757c-5.646,0-10.938,2.51-14.52,6.888l2.63,2.151
				c2.936-3.586,7.269-5.642,11.89-5.642c8.468,0,15.359,6.89,15.359,15.359c0,8.467-6.892,15.357-15.359,15.357
				c-1.402,0-2.826-0.204-4.23-0.604l-0.935,3.262c1.709,0.49,3.446,0.741,5.165,0.741
				C887.511,522.982,895.923,514.57,895.923,504.229z"/>
			<path fill="#333333" d="M892.197,519.72l-1.843,2.857c5.629,3.629,8.991,9.778,8.991,16.445v9.31h-16.992l0,0h-3.396v3.399
				h23.785v-12.709C902.742,531.193,898.799,523.979,892.197,519.72z"/>
		</g>
	</g>
</g>
<g>
	<circle fill="none" stroke="#8BC34A" stroke-width="5" stroke-miterlimit="10" cx="512" cy="849" r="85"/>
	<g>
		<g>
			<rect x="478.985" y="834.752" fill="#8BC34A" width="66.167" height="38.046"/>
			<path fill="#333333" d="M551.77,833.095c0-1.616-0.793-3.046-1.996-3.952l6.68-8.018c0.594,0.253,1.248,0.393,1.934,0.393
				c2.734,0,4.961-2.229,4.961-4.963c0-2.736-2.227-4.963-4.961-4.963c-2.736,0-4.964,2.227-4.964,4.963
				c0,0.844,0.23,1.623,0.603,2.318l-7.72,9.261h-68.974c-2.736,0-4.962,2.227-4.962,4.961v43.01h-11.58v6.618
				c0,2.734,2.227,4.961,4.963,4.961h92.634c2.734,0,4.961-2.227,4.961-4.961v-6.618H551.77V833.095L551.77,833.095z
				 M558.387,814.902c0.91,0,1.654,0.741,1.654,1.652c0,0.912-0.744,1.654-1.654,1.654c-0.913,0-1.654-0.742-1.654-1.654
				C556.732,815.644,557.474,814.902,558.387,814.902z M475.678,833.095c0-0.91,0.743-1.653,1.654-1.653h66.219l-19.625,23.553
				c-0.594-0.254-1.246-0.395-1.932-0.395c-1.334,0-2.543,0.535-3.436,1.396l-11.514-5.756c0.025-0.2,0.063-0.396,0.063-0.602
				c0-2.737-2.227-4.964-4.963-4.964s-4.963,2.227-4.963,4.964c0,0.764,0.187,1.478,0.498,2.127l-8.296,8.294
				c-0.648-0.312-1.363-0.497-2.126-0.497c-2.736,0-4.962,2.227-4.962,4.964c0,2.734,2.226,4.961,4.962,4.961
				c2.735,0,4.962-2.227,4.962-4.961c0-0.765-0.187-1.481-0.498-2.128l8.296-8.294c0.648,0.309,1.362,0.495,2.127,0.495
				c1.334,0,2.542-0.535,3.436-1.396l11.514,5.757c-0.025,0.199-0.063,0.397-0.063,0.602c0,2.737,2.227,4.964,4.963,4.964
				c2.734,0,4.962-2.227,4.962-4.964c0-0.84-0.228-1.622-0.599-2.318l21.283-25.544c0.48,0.29,0.821,0.794,0.821,1.395v43.01
				h-72.784V833.095z M523.648,859.563c0,0.913-0.743,1.654-1.654,1.654c-0.912,0-1.652-0.741-1.652-1.654
				c0-0.91,0.74-1.653,1.652-1.653C522.905,857.909,523.648,858.652,523.648,859.563z M500.49,849.639
				c0-0.912,0.742-1.655,1.654-1.655c0.911,0,1.654,0.743,1.654,1.655c0,0.91-0.743,1.652-1.654,1.652
				C501.232,851.291,500.49,850.549,500.49,849.639z M488.911,864.526c0,0.911-0.743,1.653-1.654,1.653
				c-0.912,0-1.654-0.742-1.654-1.653c0-0.913,0.743-1.653,1.654-1.653C488.168,862.873,488.911,863.613,488.911,864.526z
				 M560.041,879.412v3.311c0,0.91-0.744,1.653-1.654,1.653h-92.634c-0.912,0-1.655-0.743-1.655-1.653v-3.311h8.272h79.399H560.041z
				"/>
		</g>
	</g>
</g>
<g>
	<circle fill="none" stroke="#F9BA48" stroke-width="5" stroke-miterlimit="10" cx="177" cy="514" r="85"/>
	<g>
		<g>
			<path fill="#333333" d="M185.193,526.209l-2.369-17.418c-0.153-1.114-0.574-2.115-1.162-2.984l1.437-2.871l-2.904-1.453
				l-1.043,2.088c-1.014-0.512-2.155-0.773-3.35-0.666c-1.803,0.148-3.418,1.008-4.549,2.415c-1.113,1.386-1.613,3.192-1.374,4.953
				l1.68,12.345l-12.581,30.742l2.255,0.924c1.25,0.512,1.853,1.948,1.341,3.2c-0.513,1.252-1.95,1.856-3.199,1.34l-13.576-5.557
				c-1.252-0.512-1.853-1.947-1.342-3.2c0.513-1.251,1.949-1.852,3.199-1.34l2.257,0.924l1.853-4.527l3.777,1.547
				c0.705,0.29,1.434,0.427,2.151,0.427c2.246,0,4.379-1.337,5.28-3.542c0.577-1.409,0.572-2.955-0.017-4.361
				c-0.174-0.412-0.403-0.789-0.659-1.143c1.006-0.628,1.797-1.539,2.254-2.656c0.774-1.891,0.439-3.953-0.678-5.498
				c0.98-0.61,1.787-1.517,2.257-2.664c0.773-1.893,0.438-3.955-0.682-5.5c1.009-0.629,1.802-1.539,2.261-2.658
				c1.086-2.652,0.004-5.641-2.398-7.051l1.884-4.605l-2.257-0.922c-0.607-0.245-1.081-0.715-1.334-1.318s-0.256-1.271-0.008-1.877
				c0.513-1.251,1.945-1.856,3.199-1.34l2.257,0.924l1.849-4.52l-3.004-1.23l-0.642,1.568c-2.703-0.682-5.576,0.715-6.662,3.367
				c-0.576,1.41-0.572,2.957,0.019,4.363c0.48,1.152,1.31,2.092,2.368,2.711l-0.644,1.574l-5.287-2.162
				c-2.914-1.193-6.242,0.207-7.431,3.115c-0.775,1.893-0.438,3.955,0.683,5.502c-0.98,0.611-1.791,1.512-2.261,2.66
				c-0.773,1.892-0.437,3.956,0.682,5.5c-0.98,0.611-1.79,1.512-2.259,2.66c-0.774,1.892-0.438,3.955,0.682,5.5
				c-1.009,0.628-1.802,1.539-2.259,2.66c-1.189,2.906,0.205,6.241,3.114,7.431l0.76,0.312l-0.644,1.574
				c-2.706-0.685-5.576,0.715-6.661,3.367c-1.19,2.908,0.208,6.243,3.114,7.433l13.576,5.558c0.706,0.288,1.433,0.425,2.15,0.425
				c2.246,0,4.381-1.337,5.283-3.541c1.086-2.653,0.016-5.664-2.389-7.071l0.961-2.353l0.258,0.105
				c3.426,1.401,7.32,0.996,10.378-1.036l28.931,11.838l9.255-22.617L185.193,526.209z M150.808,532.418
				c-1.251-0.51-1.853-1.945-1.342-3.198c0.513-1.245,2.057-1.847,3.303-1.343l6.157,2.197v-0.277c0,0-0.224,0-0.223,0l1.504,0.893
				c1.251,0.511,1.853,2.085,1.34,3.336c-0.246,0.607-0.714,1.148-1.32,1.402c-0.603,0.252-1.269,0.291-1.874,0.043l-2.634-1.06
				L150.808,532.418z M152.386,524.285c-1.25-0.511-1.853-1.961-1.339-3.211c0.511-1.252,1.943-1.856,3.193-1.35l2.631,1.074
				l4.914,2.009c1.252,0.513,1.854,1.945,1.342,3.197c-0.51,1.247-1.944,1.875-3.191,1.368l-6.043-2.445c-0.001,0-0.004,0-0.004,0
				L152.386,524.285z M152.623,512.9c0.39-0.949,1.307-1.523,2.274-1.523c0.309,0,0.622,0.059,0.925,0.184l7.542,3.087
				c1.252,0.511,1.854,1.946,1.34,3.199c-0.246,0.605-0.714,1.079-1.319,1.331c-0.602,0.252-1.269,0.258-1.877,0.008l-3.792-1.502
				l-2.243-0.871c-0.001,0-0.001,0-0.004,0l-1.503-0.664C152.712,515.637,152.111,514.152,152.623,512.9z M147.897,539.26
				c-0.254-0.604-0.256-1.271-0.006-1.879c0.249-0.604,0.716-1.079,1.32-1.329c0.304-0.13,0.625-0.194,0.947-0.194
				c0.315,0,0.629,0.063,0.93,0.186l1.464,0.599l4.567,1.87c0.003,0.001,0.005,0.001,0.007,0.001l1.502,0.615
				c0.607,0.247,1.081,0.717,1.334,1.319c0.252,0.604,0.255,1.272,0.006,1.878c-0.247,0.605-0.717,1.079-1.323,1.332
				c-0.602,0.252-1.269,0.258-1.875,0.009l-7.544-3.088C148.623,540.331,148.151,539.863,147.897,539.26z M201.944,555.959
				l-27.646-11.312l-0.745,0.595c-2.238,1.787-5.272,2.228-7.914,1.144l-0.259-0.103l9.51-23.238l-1.796-13.211
				c-0.122-0.898,0.123-1.779,0.687-2.484c0.568-0.706,1.382-1.137,2.286-1.213c1.702-0.143,3.288,1.247,3.539,3.092l2.622,19.275
				l26.51,10.85L201.944,555.959z"/>
			<path fill="#F9BA48" d="M205.21,487.13l-11.758-6.931c-0.772-0.456-1.456-1.559-1.518-2.454l-0.956-13.614
				c-0.063-0.894-0.663-1.141-1.336-0.547l-10.226,9.039c-0.671,0.594-1.931,0.902-2.803,0.686l-13.241-3.299
				c-0.87-0.214-1.29,0.281-0.933,1.103l5.437,12.518c0.357,0.824,0.262,2.118-0.214,2.88l-7.23,11.574
				c-0.475,0.762-0.132,1.314,0.76,1.227l13.587-1.303c0.892-0.086,2.093,0.406,2.672,1.092l8.773,10.453
				c0.575,0.688,1.207,0.533,1.402-0.342l2.958-13.323c0.195-0.876,1.033-1.867,1.864-2.202l12.654-5.117
				C205.933,488.234,205.98,487.586,205.21,487.13z"/>
			<polygon fill="#333333" points="183.604,493.004 180.637,491.789 186.191,478.211 180.161,475.744 178.936,478.75 
				181.958,479.986 177.633,490.559 174.606,489.322 173.378,492.326 182.374,496.008 			"/>
		</g>
	</g>
</g>
</svg>
