<?xml version="1.0" encoding="utf-8"?>
<!-- Generator: Adobe Illustrator 16.0.0, SVG Export Plug-In . SVG Version: 6.00 Build 0)  -->
<!DOCTYPE svg PUBLIC "-//W3C//DTD SVG 1.1//EN" "http://www.w3.org/Graphics/SVG/1.1/DTD/svg11.dtd">
<svg version="1.1" id="Layer_1" xmlns="http://www.w3.org/2000/svg" xmlns:xlink="http://www.w3.org/1999/xlink" x="0px" y="0px"
	 width="1024px" height="1024px" viewBox="0 0 1024 1024" enable-background="new 0 0 1024 1024" xml:space="preserve">
<g>
	<circle fill="#F7B239" cx="654.858" cy="146.976" r="51.533"/>
	<g>
		<path fill="#4D4D4D" d="M654.857,159.177c-8.665,0-17.331-3.299-23.927-9.896c-0.746-0.746-0.746-1.955,0-2.701s1.955-0.746,2.7,0
			c11.704,11.704,30.749,11.704,42.453,0c0.746-0.746,1.955-0.746,2.701,0s0.746,1.955,0,2.701
			C672.188,155.879,663.523,159.177,654.857,159.177z"/>
		<path fill="#4D4D4D" d="M641.733,135.838c-1.055,0-1.91-0.855-1.91-1.91c0-5.126-4.17-9.297-9.297-9.297s-9.297,4.17-9.297,9.297
			c0,1.055-0.855,1.91-1.91,1.91s-1.91-0.855-1.91-1.91c0-7.232,5.884-13.117,13.117-13.117c7.232,0,13.117,5.884,13.117,13.117
			C643.644,134.983,642.788,135.838,641.733,135.838z"/>
		<path fill="#4D4D4D" d="M690.396,135.838c-1.056,0-1.91-0.855-1.91-1.91c0-5.126-4.171-9.297-9.298-9.297
			c-5.126,0-9.297,4.17-9.297,9.297c0,1.055-0.855,1.91-1.91,1.91s-1.91-0.855-1.91-1.91c0-7.232,5.884-13.117,13.117-13.117
			s13.117,5.884,13.117,13.117C692.306,134.983,691.451,135.838,690.396,135.838z"/>
	</g>
	<g>
		<circle fill="#F95428" cx="622.411" cy="144.422" r="5.035"/>
		<circle fill="#F95428" cx="687.304" cy="144.422" r="5.035"/>
	</g>
</g>
<g>
	<g>
		<g>
			<g>
				<path fill="#E91E63" stroke="#E91E63" stroke-width="2" stroke-miterlimit="10" d="M509,530l-301.697,58.644
					c-32.388-166.622,76.43-327.952,243.053-360.341c19.995-3.887,38.275-5.646,58.644-5.646V530z"/>
			</g>
		</g>
		<g>
			<g>
				<path fill="#F9BA48" d="M509,540l209.607-224.777c124.142,115.764,130.933,310.244,15.17,434.386
					C618.014,873.749,423.533,880.54,299.392,764.777c-49.656-46.306-79.134-99.484-92.089-166.134L509,540z"/>
			</g>
		</g>
		<g>
			<g>
				<path fill="#8BC34A" d="M518,516V208.656c81.476,0,150.021,27,209.607,82.566L518,516z"/>
			</g>
		</g>
	</g>
	<g>
		<g>
		</g>
		<g>
		</g>
		<g>
		</g>
	</g>
</g>
<g>
	<circle fill="#F95428" cx="203.101" cy="274.718" r="51.631"/>
	<path fill="#E54728" d="M195.736,289.437c-0.556,0-1.107-0.24-1.485-0.707c-0.668-0.82-0.543-2.025,0.276-2.691
		c2.437-1.982,5.528-3.073,8.711-3.073c3.032,0,6.013,1.003,8.393,2.827c0.839,0.642,0.997,1.843,0.355,2.682
		c-0.643,0.839-1.845,0.998-2.684,0.356c-1.714-1.313-3.868-2.038-6.064-2.038c-2.304,0-4.54,0.787-6.296,2.215
		C196.588,289.296,196.161,289.437,195.736,289.437z"/>
	<g>
		<path fill="#4D4D4D" d="M185.411,269.233c0-0.988-0.281-1.907-0.762-2.691c1.408,0.295,2.967,0.478,4.679,0.478
			c2.216,0,4.688-0.302,7.413-1.042c1.02-0.278,1.621-1.33,1.344-2.349c-0.276-1.021-1.33-1.622-2.349-1.344
			c-13.581,3.695-19.462-4.946-19.708-5.32c-0.575-0.883-1.754-1.136-2.641-0.566c-0.889,0.572-1.145,1.756-0.573,2.646
			c0.078,0.12,1.948,2.981,5.857,5.235c0.013,0.006,0.025,0.014,0.038,0.021c-2.104,0.653-3.631,2.616-3.631,4.934
			c0,2.853,2.312,5.167,5.166,5.167S185.411,272.086,185.411,269.233z"/>
		<path fill="#4D4D4D" d="M204.004,274.929c-9.479,0-17.916,5.898-20.996,14.674c-0.351,0.997,0.174,2.088,1.172,2.438
			c0.998,0.351,2.09-0.174,2.438-1.171c2.545-7.246,9.53-12.113,17.386-12.113c7.854,0,14.838,4.867,17.383,12.113
			c0.276,0.787,1.015,1.28,1.805,1.28c0.211,0,0.425-0.034,0.634-0.108c0.997-0.35,1.521-1.442,1.173-2.438
			C221.917,280.827,213.481,274.929,204.004,274.929z"/>
		<path fill="#4D4D4D" d="M232.819,256.408c-0.882-0.575-2.066-0.325-2.646,0.555c-0.242,0.37-6.124,9.017-19.707,5.322
			c-1.021-0.278-2.072,0.323-2.349,1.344c-0.279,1.02,0.323,2.071,1.344,2.349c2.725,0.742,5.195,1.042,7.412,1.042
			c1.712,0,3.271-0.181,4.68-0.478c-0.48,0.784-0.762,1.704-0.762,2.691c0,2.853,2.312,5.167,5.165,5.167s5.167-2.313,5.167-5.167
			c0-2.318-1.527-4.281-3.631-4.935c0.011-0.006,0.025-0.013,0.038-0.02c3.908-2.254,5.779-5.115,5.856-5.235
			C233.957,258.158,233.702,256.983,232.819,256.408z"/>
	</g>
</g>
<g>
	<circle fill="#F7B239" cx="699.027" cy="887.48" r="51.785"/>
	<g>
		<path fill="#4D4D4D" d="M686.998,877.645c-0.653,0-1.29-0.333-1.649-0.935c-1.734-2.901-4.788-4.635-8.169-4.635
			c-3.38,0-6.434,1.733-8.167,4.635c-0.544,0.91-1.722,1.207-2.632,0.663c-0.91-0.543-1.208-1.722-0.664-2.632
			c2.434-4.073,6.719-6.505,11.463-6.505c4.746,0,9.031,2.432,11.464,6.505c0.544,0.91,0.247,2.089-0.663,2.632
			C687.672,877.557,687.333,877.645,686.998,877.645z"/>
		<path fill="#4D4D4D" d="M730.691,877.645c-0.653,0-1.29-0.333-1.649-0.935c-1.734-2.901-4.788-4.635-8.169-4.635
			c-3.38,0-6.434,1.733-8.168,4.635c-0.543,0.91-1.722,1.207-2.632,0.663c-0.91-0.543-1.207-1.722-0.664-2.632
			c2.434-4.073,6.72-6.505,11.464-6.505c4.746,0,9.031,2.432,11.464,6.505c0.543,0.91,0.247,2.089-0.663,2.632
			C731.365,877.557,731.026,877.645,730.691,877.645z"/>
		<path fill="#4D4D4D" d="M713.351,909.858c-0.654,0-1.29-0.333-1.649-0.935c-2.691-4.504-7.429-7.191-12.674-7.191
			s-9.983,2.688-12.674,7.191c-0.543,0.91-1.722,1.206-2.632,0.663c-0.91-0.544-1.207-1.722-0.663-2.632
			c3.389-5.674,9.359-9.061,15.969-9.061s12.579,3.387,15.969,9.061c0.544,0.91,0.248,2.088-0.662,2.632
			C714.024,909.771,713.685,909.858,713.351,909.858z"/>
	</g>
	<path fill="#E09B2D" d="M703.605,911.371c-0.433,0-0.867-0.145-1.226-0.442c-2.288-1.899-4.418-1.899-6.706,0
		c-0.815,0.677-2.025,0.564-2.703-0.251s-0.564-2.025,0.251-2.703c3.689-3.063,7.921-3.063,11.61,0
		c0.815,0.678,0.929,1.888,0.251,2.703C704.703,911.135,704.156,911.371,703.605,911.371z"/>
	<g>
		<path fill="#4D4D4D" d="M678.348,883.921c-0.065-0.007-0.13-0.01-0.196-0.01h-9.104c-1.06,0-1.919,0.858-1.919,1.919
			s0.859,1.92,1.919,1.92h4.104c-0.114,0.43-0.182,0.877-0.182,1.344c0,2.861,2.32,5.182,5.182,5.182
			c2.862,0,5.183-2.32,5.183-5.182C683.333,886.298,681.116,884.025,678.348,883.921z"/>
		<path fill="#4D4D4D" d="M724.194,883.921c-0.045-0.005-0.09-0.005-0.135-0.007c-0.021,0-0.041-0.003-0.062-0.003l0,0l0,0h-9.104
			c-1.06,0-1.919,0.859-1.919,1.919c0,1.061,0.859,1.92,1.919,1.92h4.104c-0.115,0.43-0.183,0.878-0.183,1.344
			c0,2.861,2.321,5.182,5.183,5.182s5.182-2.32,5.182-5.182C729.18,886.298,726.965,884.025,724.194,883.921z"/>
	</g>
</g>
</svg>
